<?xml version="1.0" encoding="UTF-8"?><svg id="Calque_1" xmlns="http://www.w3.org/2000/svg" viewBox="0 0 1206.22 873.32"><defs><style>.cls-1{font-family:DharmaGothicE-ExBold, 'Dharma Gothic E';font-size:223.28px;font-weight:700;}.cls-1,.cls-2{fill:#f2a57d;}.cls-2{stroke-width:0px;}</style></defs><text class="cls-1" transform="translate(613.89 525.6)"><tspan x="0" y="0">TOQUE </tspan><tspan x="0" y="200">EN DUEL</tspan></text><path class="cls-2" d="M603.73,480.64c6.5-7.09,6.19-15.85-.59-22.36-12.75-12.24-25.52-24.47-38.45-36.53-8.5-7.94-16.25-7.37-24.12,1.37-12.45,13.84-25,27.59-37.25,41.61-3.55,4.06-6.14,4.18-9.93.45-3.02-2.98-6.7-5.34-10.26-7.72-3.25-2.17-3.77-4.57-3.07-8.49,1.51-8.43,2.55-17.02,2.91-25.58.43-10.18.29-20.38.18-30.58-2.87-.14-5.74-.28-8.61-.42.1,14.63.03,29.25-.92,43.82-1.38,21.18-14.21,37.17-31.35,49.15-31.84,22.27-67.23,28.18-105.22,22.46-22.77-3.43-43.45-11.52-61.16-26.2-17.54-14.54-28.16-32.68-27.67-56.44.26-12.64.23-25.28.16-37.93-3.14.02-6.28.07-9.42.1.01.29.03.58.03.9-.1,7.68,0,15.35.02,23.03.04,13.39-.87,26.83,4.15,39.78.58,1.49-1.48,4.74-3.16,6.22-5.34,4.7-11.27,8.72-16.58,13.44-3.44,3.05-6.03,3.19-9.08-.24-4.28-4.81-8.72-9.48-13.12-14.19-13.2-14.13-26.42-28.25-40.4-43.19-5.03,11.85-4.92,22.68-2.58,33.63,4.9,22.93,16.73,42.59,29.76,61.56,3.13,4.56,3.39,8.11.99,12.78-16.13,31.34-25.93,64.69-30.91,99.48-3.87,27.03-4.62,53.99,4.07,80.41,6.93,21.05,19.35,36.63,42.11,41.82,2.06.47,4.15,1.31,5.94,2.44,33.99,21.38,71.44,33.57,110.83,38.62,58.69,7.53,114.92-2.3,168.19-28.48,9.56-4.7,19.22-9.7,29.41-12.46,16.8-4.55,29.07-13.64,36.91-29.15,8.98-17.78,11.96-36.88,12.22-56.4.44-34.4-6.82-67.72-18.26-99.81-3.96-11.11-1.89-16.96,5.42-24.46,16.67-17.1,32.67-34.85,48.81-52.45ZM546.06,430.36c5.22-5.88,7.69-5.88,13.58-.4,8.21,7.64,16.44,15.26,24.59,22.96,1.33,1.26,2.33,2.87,3.64,4.52-1.18,1.63-2.01,3.06-3.11,4.25-30.93,33.45-61.93,66.84-92.79,100.37-3.18,3.46-5.32,3.54-8.88.49-7.12-6.1-13.64-12.65-24.26-13.81-8.48-.92-10.1-8.61-4.43-15.01,30.54-34.47,61.08-68.93,91.66-103.36ZM382.44,518.23c-.46,1.53-.54,3.21-1.37,4.34-5.32,7.29-10.84,14.42-16.2,21.68-2.65,3.59-4.9,4.59-8.31.5-7.23-8.65-14.86-16.97-23.29-26.52h49.17ZM229.59,477.52c.55-.46.99-1.05,1.55-1.48,4.89-3.79,9.54-9.94,14.79-10.51,3.56-.38,8.27,6.83,11.93,11.1,13.61,15.89,30.87,26.22,50.29,33.13,6.58,2.34,11.39,6.2,15.77,11.6,11.69,14.39,23.94,28.32,36.7,43.29,7.74-10.14,14.81-19.33,21.79-28.59,4.31-5.73,7.63-12.58,12.95-17.07,5.01-4.23,11.9-6.55,18.28-8.78,23.63-8.28,43.79-21.19,58-42.25,2.67-3.95,4.63-4.11,8.56-1.28,13.2,9.52,13.16,9.18,2.68,21.02-19.47,21.99-38.87,44.06-57.96,66.38-4.57,5.34-9.27,8.16-16.5,7.97-15.37-.4-29.81,3.45-43.33,10.94-1.84,1.02-5.27,1.07-7.05.02-14.44-8.55-29.97-12.31-46.65-11.61-7.71.33-13.64-2.57-18.97-8.28-20.84-22.33-41.97-44.4-63.06-66.49-3.13-3.28-3.3-6.14.23-9.09ZM434.03,582.55c-8.98,11.02-8.71,25.71-15.06,37.66-5.26,9.89-13.88,15.93-25.28,16.21-9.04.22-18.12-1.36-27.15-1.13-3.47.09-7.66,2.18-10.16,4.71-15.43,15.59-30.48,31.56-45.66,47.4-.46.48-1.08.8-3.08,2.23-2.24-9.1-4.35-17.1-6.17-25.16-2.12-9.34-4.34-18.69-5.73-28.14-.38-2.56,1.24-6.74,3.32-8.14,23.73-16.07,47.3-32.48,71.88-47.16,9.01-5.38,20.49-6.99,31.07-9.3,7.41-1.62,15.22-1.4,22.83-2.17,6.87-.7,10.01,1.98,9.83,8.8-.04,1.43.15,3.26-.62,4.21ZM427.72,634.96c-3.51,17.07-7.2,34.1-11.13,51.08-.22.95-4.03,2.28-4.51,1.79-13.19-13.3-26.16-26.82-39.17-40.3.32-.63.64-1.26.96-1.89,5.85,0,11.71.16,17.55-.03,11.97-.39,22.2-4.68,30.36-13.69.95-1.05,2.84-1.27,4.29-1.87.59,1.65,1.95,3.46,1.65,4.92ZM434.16,650.12c1.05-4.37,2.04-8.76,3.41-14.68,13.38,4.73,25.7,9.08,38.02,13.45,1.34.48,2.6,1.43,3.96,1.59,10.64,1.24,14.69,8.78,16.33,17.85,3.78,20.96.25,40.4-13.4,57.39-2.49,3.09-4.63,3.99-9.02,2.31-14.69-5.6-29.72-10.3-44.62-15.32-7.89-2.66-8.77-4.86-6.8-12.54,4.27-16.63,8.12-33.36,12.13-50.06ZM296.58,711.99c-16.4,5.85-32.78,11.77-49.41,16.91-2.02.63-6.22-2.74-8.12-5.23-12.15-15.94-14.95-34-12.1-53.58,1.55-10.64,6.01-16.97,16.91-19.89,12.38-3.33,24.25-8.54,36.36-12.85,1.51-.54,3.18-.6,5.67-1.04,2.22,9.51,4.44,18.71,6.51,27.94,2.93,13.04,5.4,26.19,8.79,39.11,1.35,5.13-.74,7.25-4.61,8.63ZM286.94,580.13c-2.56-6.17,1.67-11.71,8.32-11.15,15.91,1.34,32.15.58,47.38,6.68,2.77,1.11,5.37,2.66,10.11,5.04-6.62,4.61-11.42,8.04-16.31,11.33-9.51,6.4-19.23,12.52-28.55,19.18-5.19,3.7-9.7,2.67-10.12-2.94-.8-10.74-7-18.87-10.84-28.14ZM431.66,557.89c4.33-3.6,7.29-6.83,10.96-8.59.98-.47,6.22,4.84,5.93,5.33-2.12,3.51-4.84,6.92-8.15,9.24-.81.57-4.53-3.03-8.73-5.99ZM285.72,559.55c-3.32,3.36-5.69,5.77-8.07,8.18-2.18-2.31-4.36-4.61-6.55-6.92,2.5-2.26,4.7-5.24,7.64-6.43,1.21-.49,3.98,2.85,6.98,5.17ZM170.46,457.52c-2.77-6.93-3.57-14.65-5.28-22,.61-.17,1.21-.35,1.82-.52,8.28,8.07,16.9,15.82,24.79,24.25,24.97,26.69,49.69,53.6,74.41,80.52,1.75,1.91,4.31,5.96,3.74,6.63-2.64,3.06-5.93,6.08-9.62,7.58-4.44,1.81-9.49,2.57-14.32,2.79-2.95.14-7.03-.63-8.84-2.6-26.73-29.09-51.82-59.42-66.68-96.65ZM204.47,733.38c-16.56-3.92-26.2-15.58-32.15-30.89-8.76-22.52-8.86-45.91-6.52-69.38,3.53-35.48,13.03-69.43,28.01-101.81,1.08-2.33,2.5-4.51,4.44-7.98,7.54,8.98,14.21,17,20.98,24.95,2.79,3.28,5.84,6.34,8.67,9.59,7.35,8.43,15.62,11.38,26.06,5.31,1.38-.8,4.69.15,6.19,1.4,10.91,9.07,19.49,20.19,25.63,32.88,3.16,6.53,5.06,13.87,6.16,21.06.31,2.06-3.74,5.91-6.57,7.11-9.43,4.01-19.2,7.21-28.85,10.68-4.04,1.45-8.46,2.2-12.11,4.31-10.53,6.09-20.48,2.88-30.67-.73-12.27-4.34-23.53-.12-34.48,4.96-1.19.55-1.32,3.38-1.95,5.15,2.32.81,4.76,2.56,6.93,2.27,8.16-1.07,16.21-2.89,24.34-4.23,1.58-.26,3.37.19,4.96.66,8.78,2.55,9.09,3.2,6.61,12.04-6.66,23.7-3.63,45.93,10.06,66.56.52.79.95,1.65,1.34,2.52.19.41.17.92.4,2.32-8.91,4.15-18.36,3.43-27.49,1.27ZM363.52,776.96c-46.99.72-91.43-9.86-135.12-31.82,3.29-1.58,4.62-2.39,6.06-2.88,24.62-8.41,49.21-16.91,73.91-25.07,4.77-1.58,5.63-4.17,3.79-8.04-2.58-5.41-1.04-9.24,3.02-13.31,13.98-14.03,27.71-28.3,41.38-42.62,3.32-3.48,5.63-4.03,9.29-.14,14.39,15.28,29.28,30.09,43.49,45.53,1.97,2.14,2.12,6.98,1.49,10.25-.88,4.57-.52,6.94,4.41,8.58,23.33,7.78,46.54,15.92,69.79,23.93,1.32.46,2.65.89,3.98,1.33.17.71.33,1.43.5,2.14-39.35,20.66-81.43,31.43-125.98,32.11ZM555.39,622.75c2.54,15.21,3.1,31.01,2.35,46.45-.87,17.94-4.56,35.6-16.69,50.14-12.3,14.75-28.52,17.28-46.19,14.63-6.45-.97-3.38-4.97-1.46-7.88,9.26-14.03,13.9-29.4,12.5-46.17-.63-7.54-2.45-15.03-4.29-22.4-.92-3.68-.82-5.44,3.21-7.01,11.21-4.38,22.14-3.7,32.66,1.36,3.62,1.74,5.71,1.91,7.66-1.44,2.45-4.22-.95-5.43-3.76-6.8-12.16-5.92-25.11-8.28-37.35-2.18-9.27,4.63-16.84,2.29-25.2-.85-12.93-4.85-25.98-9.41-38.96-14.13-10.41-3.78-10.72-5.13-6.99-15.18,4.15-11.2,6.6-23.14,11.71-33.84,3.33-6.99,9.89-12.52,15.46-18.26.78-.81,4.62.28,6.25,1.53,7.75,5.97,15.23,12.28,22.79,18.49,9.31,7.65,16.44,7.21,24.92-1.66,7.39-7.73,14.72-15.52,23.13-24.39,1.66,2.88,3.34,4.73,3.85,6.86,5.03,20.87,10.89,41.61,14.42,62.74ZM508.68,570.09c-2.03,2.19-4.47,4.01-6.81,6.09-2.15-1.12-4.73-1.82-4.77-2.62-.07-1.8.65-4.08,1.87-5.42,12.28-13.65,24.66-27.21,37.12-40.68,17.5-18.92,35.09-37.74,52.65-56.6.97-1.04,1.81-2.41,3.02-2.99,1.76-.85,3.79-1.12,5.71-1.64.09,2.28,1.19,5.39.11,6.69-7.18,8.62-14.74,16.93-22.34,25.19-22.13,24.04-44.33,48.03-66.55,71.99Z"/><path class="cls-2" d="M331.4,415.57c-1.03,1.27-1.84,3.1-3.19,3.69-1.68.74-4.35,1.3-5.66.46-4.31-2.77-7.1-3.02-10.82,1.55-3.1,3.81-8.49,3.25-11.02-1.19-3.42-6.01-6.9-5.46-11.55-2.04-2.9,2.13-6.32,2.64-7.53-1.35-.54-1.77,1.19-5.37,2.95-6.51,12.42-8.07,30.65-7.11,42.52,1.79,1.12.84,2.15,1.81,4.28,3.61Z"/><path class="cls-2" d="M342.26,479.08c2.71,3.17,4.84,4.64,9.98,1.35,10.56-6.76,21.78-6.35,32.87.42,2.92,1.78,5.6,3.02,7.37-.21.77-1.41-.09-4.36-1.57-5.4-15.14-10.6-38.4-8.64-48.65,3.84Z"/><path class="cls-2" d="M392.23,419.44c1.12,1.19,2.06,2.95,3.45,3.44,1.73.61,4.44.97,5.67.04,4.09-3.08,6.85-3.54,10.9.74,3.37,3.57,8.71,2.61,10.9-2.01,2.96-6.25,6.48-5.96,11.36-2.9,3.05,1.91,6.5,2.16,7.41-1.91.4-1.81-1.59-5.27-3.43-6.28-12.99-7.12-31.1-4.81-42.27,4.96-1.06.92-2.01,1.96-4,3.92Z"/><polygon class="cls-2" points="482.19 392.16 240.01 392.16 240.01 193.37 248.65 193.37 248.65 383.52 473.56 383.52 473.56 193.37 482.19 193.37 482.19 392.16"/><path class="cls-2" d="M247.06,200.68c-13.61-3.75-23.12-16.22-23.12-30.33,0-17.36,14.12-31.48,31.48-31.48,2.99,0,5.98.43,8.85,1.28,2.77-14.55,15.59-25.58,30.93-25.58,7.8,0,15.23,2.9,20.94,7.99,5.43-9.9,15.94-16.36,27.59-16.36,9.72,0,18.71,4.44,24.62,11.88,5.77-5.3,13.38-8.34,21.3-8.34,10.45,0,20.13,5.23,25.94,13.68,5.2-3.58,11.35-5.5,17.77-5.5,12.35,0,23.35,7.12,28.48,18.08,1.68-.28,3.38-.42,5.07-.42,17.36,0,31.48,14.12,31.48,31.48,0,15.31-10.95,28.34-26.03,30.98l-1.49-8.51c10.94-1.91,18.88-11.37,18.88-22.48,0-12.6-10.25-22.85-22.85-22.85-2.17,0-4.36.32-6.5.95l-4.04,1.19-1.3-4c-3.06-9.45-11.79-15.8-21.73-15.8-6,0-11.67,2.32-15.97,6.53l-4.4,4.31-2.55-5.61c-3.71-8.15-11.86-13.41-20.79-13.41-7.31,0-14,3.4-18.37,9.31l-4.1,5.56-3.2-6.12c-3.96-7.58-11.72-12.28-20.25-12.28-10.29,0-19.35,6.94-22.03,16.89l-2.42,8.97-5.3-7.64c-4.28-6.17-11.3-9.85-18.78-9.85-12.56,0-22.79,10.19-22.85,22.74,0,.11.01.2.01.3l.12,7.28-6.45-3.39c-3.31-1.74-6.88-2.63-10.62-2.63-12.6,0-22.85,10.25-22.85,22.84,0,10.23,6.9,19.28,16.77,22l-2.29,8.33Z"/><rect class="cls-2" x="271.85" y="220.64" width="8.64" height="164.06"/><rect class="cls-2" x="306.17" y="254.38" width="8.64" height="132.64"/></svg>