<?xml version="1.0" encoding="UTF-8"?><svg id="Calque_1" xmlns="http://www.w3.org/2000/svg" viewBox="0 0 971.16 851.3"><defs><style>.cls-1{fill:#fff;}.cls-1,.cls-2{stroke-width:0px;}.cls-2{fill:#f2a57d;}</style></defs><circle class="cls-1" cx="489.18" cy="430.96" r="395.75"/><polygon class="cls-2" points="635.53 508.03 334.7 508.03 334.7 261.1 345.43 261.1 345.43 497.3 624.8 497.3 624.8 261.1 635.53 261.1 635.53 508.03"/><path class="cls-2" d="M343.45,270.19c-16.91-4.66-28.72-20.15-28.72-37.67,0-21.56,17.54-39.11,39.11-39.11,3.72,0,7.43.54,10.99,1.59,3.44-18.07,19.36-31.78,38.42-31.78,9.68,0,18.92,3.6,26.01,9.93,6.75-12.3,19.8-20.32,34.27-20.32,12.07,0,23.25,5.51,30.58,14.75,7.16-6.58,16.63-10.36,26.45-10.36,12.97,0,25,6.5,32.22,16.99,6.46-4.44,14.1-6.83,22.07-6.83,15.34,0,29,8.84,35.38,22.45,2.09-.35,4.19-.52,6.3-.52,21.56,0,39.11,17.54,39.11,39.11,0,19.02-13.6,35.21-32.34,38.49l-1.85-10.57c13.59-2.38,23.46-14.12,23.46-27.92,0-15.65-12.73-28.38-28.38-28.38-2.7,0-5.42.4-8.07,1.18l-5.01,1.49-1.61-4.98c-3.8-11.74-14.65-19.63-26.99-19.63-7.45,0-14.5,2.88-19.84,8.11l-5.47,5.35-3.17-6.97c-4.6-10.12-14.74-16.66-25.82-16.66-9.08,0-17.39,4.22-22.82,11.57l-5.1,6.9-3.97-7.6c-4.92-9.41-14.56-15.26-25.15-15.26-12.78,0-24.03,8.63-27.36,20.98l-3.01,11.14-6.58-9.49c-5.32-7.67-14.03-12.24-23.32-12.24-15.6,0-28.31,12.66-28.38,28.25.01.16.02.3.02.45v8.89l-7.86-4.14c-4.11-2.16-8.55-3.26-13.18-3.26-15.65,0-28.38,12.73-28.38,28.38,0,12.71,8.57,23.95,20.84,27.33l-2.85,10.34Z"/><rect class="cls-2" x="374.25" y="294.97" width="10.73" height="203.78"/><rect class="cls-2" x="416.88" y="336.89" width="10.73" height="164.76"/><path class="cls-2" d="M500.88,675.1h-31.96c-74.29,0-134.73-60.44-134.73-134.73v-41.21h301.43v41.21c0,74.29-60.44,134.73-134.73,134.73ZM344.92,509.89v30.48c0,68.38,55.63,124,124.01,124h31.96c68.38,0,124-55.63,124-124v-30.48h-279.97Z"/><path class="cls-2" d="M446.28,548.01c-1.28,1.57-2.28,3.85-3.96,4.59-2.09.92-5.41,1.61-7.02.57-5.36-3.44-8.82-3.76-13.43,1.92-3.85,4.73-10.54,4.03-13.68-1.48-4.25-7.46-8.57-6.78-14.34-2.54-3.6,2.65-7.85,3.28-9.35-1.68-.67-2.2,1.48-6.67,3.67-8.09,15.43-10.02,38.08-8.84,52.81,2.22,1.39,1.04,2.67,2.24,5.32,4.49Z"/><path class="cls-2" d="M459.77,626.89c3.37,3.94,6.01,5.77,12.4,1.68,13.12-8.4,27.06-7.89,40.83.52,3.62,2.21,6.96,3.76,9.15-.26.95-1.75-.11-5.42-1.95-6.7-18.8-13.17-47.7-10.74-60.43,4.77Z"/><path class="cls-2" d="M521.84,552.81c1.4,1.47,2.56,3.67,4.29,4.28,2.15.76,5.51,1.2,7.05.05,5.09-3.83,8.51-4.4,13.54.91,4.19,4.43,10.81,3.24,13.53-2.5,3.68-7.76,8.04-7.4,14.11-3.6,3.79,2.37,8.07,2.69,9.2-2.37.5-2.25-1.98-6.54-4.26-7.8-16.14-8.84-38.63-5.97-52.5,6.16-1.31,1.15-2.49,2.44-4.97,4.87Z"/></svg>