<svg width="10" height="16" viewBox="0 0 16 21" fill="none" xmlns="http://www.w3.org/2000/svg">
<path d="M12.9978 0.953186C11.3408 0.953186 9.99779 2.29619 9.99779 3.95319C9.99779 4.21019 10.0388 4.53019 10.0998 4.76819L4.74679 8.50418C4.26779 8.18018 3.6188 7.95319 2.9978 7.95319C1.3408 7.95319 -0.00219727 9.29619 -0.00219727 10.9532C-0.00219727 12.6102 1.3408 13.9532 2.9978 13.9532C3.6298 13.9532 4.2538 13.7182 4.7378 13.3852L10.1018 17.1512C10.0358 17.3982 9.99779 17.6852 9.99779 17.9532C9.99779 19.6102 11.3408 20.9532 12.9978 20.9532C14.6548 20.9532 15.9978 19.6102 15.9978 17.9532C15.9978 16.2962 14.6548 14.9532 12.9978 14.9532C12.3658 14.9532 11.7498 15.1812 11.2668 15.5152L5.8888 11.7522C5.9538 11.5052 5.9978 11.2212 5.9978 10.9532C5.9978 10.6852 5.95979 10.3962 5.89379 10.1492L11.2588 6.39719C11.7378 6.72019 12.3768 6.95319 12.9978 6.95319C14.6548 6.95319 15.9978 5.61019 15.9978 3.95319C15.9978 2.29619 14.6548 0.953186 12.9978 0.953186Z" fill="#FFA175"/>
</svg>
